<svg width="13" height="13" viewBox="0 0 13 13" fill="none" xmlns="http://www.w3.org/2000/svg">
<path fill-rule="evenodd" clip-rule="evenodd" d="M7.58092 2.50953V4.8943H10.9554C11.1282 4.89234 11.2994 4.92798 11.4571 4.99876C11.6148 5.06954 11.7552 5.17375 11.8686 5.30419C11.9821 5.43462 12.0658 5.58816 12.114 5.75415C12.1622 5.92015 12.1737 6.09464 12.1477 6.26553L11.325 11.6312C11.2819 11.9156 11.1375 12.1747 10.9183 12.361C10.6992 12.5472 10.4202 12.648 10.1326 12.6448H3.85473C3.85473 12.6448 3.85473 12.6448 3.85473 12.6448L3.85473 5.08061L5.79235 0.720963C6.26671 0.720963 6.72164 0.909401 7.05706 1.24482C7.39248 1.58025 7.58092 2.03518 7.58092 2.50953ZM2.96045 12.6448H1.61902C1.30278 12.6448 0.999491 12.5191 0.775876 12.2955C0.552261 12.0719 0.426636 11.7686 0.426636 11.4524V7.27906C0.426636 6.96282 0.552261 6.65953 0.775876 6.43592C0.999491 6.2123 1.30278 6.08668 1.61902 6.08668H2.96045L2.96045 12.6448C2.96045 12.6448 2.96045 12.6448 2.96045 12.6448Z" fill="current"/>
</svg>
